0
SECTION
2
HEADER
9
$INSUNITS
70
4
0
ENDSEC
0
SECTION
2
TABLES
0
TABLE
2
LAYER
70
9
0
LAYER
2
CUT
70
0
62
7
6
CONTINUOUS
0
LAYER
2
SA
70
0
62
8
6
CONTINUOUS
0
LAYER
2
NOTCH
70
0
62
9
6
CONTINUOUS
0
LAYER
2
TOPSTITCH
70
0
62
10
6
CONTINUOUS
0
LAYER
2
FOLD
70
0
62
11
6
CONTINUOUS
0
LAYER
2
SKIVE
70
0
62
12
6
CONTINUOUS
0
LAYER
2
PUNCH
70
0
62
13
6
CONTINUOUS
0
LAYER
2
GRAIN
70
0
62
14
6
CONTINUOUS
0
LAYER
2
TEXT
70
0
62
15
6
CONTINUOUS
0
ENDTAB
0
ENDSEC
0
SECTION
2
ENTITIES
0
LWPOLYLINE
8
CUT
90
4
70
1
10
0
20
0
10
100
20
0
10
100
20
100
10
0
20
100
0
LWPOLYLINE
8
CUT
90
4
70
1
10
150
20
0
10
425.0
20
0
10
425.0
20
730
10
150
20
730
0
LWPOLYLINE
8
SA
90
4
70
1
10
142
20
-8
10
433.0
20
-8
10
433.0
20
738
10
142
20
738
0
LWPOLYLINE
8
TOPSTITCH
90
4
70
1
10
153.5
20
3.5
10
421.5
20
3.5
10
421.5
20
726.5
10
153.5
20
726.5
0
LINE
8
GRAIN
10
287.5
20
10
11
287.5
21
720
0
TEXT
8
TEXT
10
155
20
365.0
40
10
1
Front
0
LWPOLYLINE
8
CUT
90
4
70
1
10
475.0
20
0
10
745.0
20
0
10
745.0
20
730
10
475.0
20
730
0
LWPOLYLINE
8
SA
90
4
70
1
10
467.0
20
-8
10
753.0
20
-8
10
753.0
20
738
10
467.0
20
738
0
LWPOLYLINE
8
TOPSTITCH
90
4
70
1
10
478.5
20
3.5
10
741.5
20
3.5
10
741.5
20
726.5
10
478.5
20
726.5
0
LINE
8
GRAIN
10
610.0
20
10
11
610.0
21
720
0
TEXT
8
TEXT
10
480.0
20
365.0
40
10
1
Back
0
LWPOLYLINE
8
CUT
90
4
70
1
10
795.0
20
0
10
895.0
20
0
10
895.0
20
730
10
795.0
20
730
0
LWPOLYLINE
8
SA
90
4
70
1
10
787.0
20
-8
10
903.0
20
-8
10
903.0
20
738
10
787.0
20
738
0
LWPOLYLINE
8
TOPSTITCH
90
4
70
1
10
798.5
20
3.5
10
891.5
20
3.5
10
891.5
20
726.5
10
798.5
20
726.5
0
LINE
8
GRAIN
10
845.0
20
10
11
845.0
21
720
0
TEXT
8
TEXT
10
800.0
20
365.0
40
10
1
Side Panel
0
LWPOLYLINE
8
CUT
90
4
70
1
10
945.0
20
0
10
1005.0
20
0
10
1005.0
20
240
10
945.0
20
240
0
LWPOLYLINE
8
SA
90
4
70
1
10
937.0
20
-8
10
1013.0
20
-8
10
1013.0
20
248
10
937.0
20
248
0
LWPOLYLINE
8
TOPSTITCH
90
4
70
1
10
948.5
20
3.5
10
1001.5
20
3.5
10
1001.5
20
236.5
10
948.5
20
236.5
0
LINE
8
GRAIN
10
975.0
20
10
11
975.0
21
230
0
TEXT
8
TEXT
10
950.0
20
120.0
40
10
1
Vent Underlay
0
LWPOLYLINE
8
CUT
90
4
70
1
10
1025.0
20
0
10
1085.0
20
0
10
1085.0
20
240
10
1025.0
20
240
0
LWPOLYLINE
8
SA
90
4
70
1
10
1017.0
20
-8
10
1093.0
20
-8
10
1093.0
20
248
10
1017.0
20
248
0
LWPOLYLINE
8
TOPSTITCH
90
4
70
1
10
1028.5
20
3.5
10
1081.5
20
3.5
10
1081.5
20
236.5
10
1028.5
20
236.5
0
LINE
8
GRAIN
10
1055.0
20
10
11
1055.0
21
230
0
TEXT
8
TEXT
10
1030.0
20
120.0
40
10
1
Vent Overlap
0
LWPOLYLINE
8
CUT
90
4
70
1
10
150
20
880
10
354.0
20
880
10
354.0
20
1520
10
150
20
1520
0
LWPOLYLINE
8
SA
90
4
70
1
10
142
20
872
10
362.0
20
872
10
362.0
20
1528
10
142
20
1528
0
LWPOLYLINE
8
TOPSTITCH
90
4
70
1
10
153.5
20
883.5
10
350.5
20
883.5
10
350.5
20
1516.5
10
153.5
20
1516.5
0
LINE
8
GRAIN
10
252.0
20
890
11
252.0
21
1510
0
TEXT
8
TEXT
10
155
20
1200.0
40
10
1
Upper Sleeve
0
LWPOLYLINE
8
CUT
90
4
70
1
10
404.0
20
880
10
540.0
20
880
10
540.0
20
1520
10
404.0
20
1520
0
LWPOLYLINE
8
SA
90
4
70
1
10
396.0
20
872
10
548.0
20
872
10
548.0
20
1528
10
396.0
20
1528
0
LWPOLYLINE
8
TOPSTITCH
90
4
70
1
10
407.5
20
883.5
10
536.5
20
883.5
10
536.5
20
1516.5
10
407.5
20
1516.5
0
LINE
8
GRAIN
10
472.0
20
890
11
472.0
21
1510
0
TEXT
8
TEXT
10
409.0
20
1200.0
40
10
1
Lower Sleeve
0
LWPOLYLINE
8
CUT
90
4
70
1
10
150
20
1670
10
330
20
1670
10
330
20
1750
10
150
20
1750
0
LWPOLYLINE
8
SA
90
4
70
1
10
142
20
1662
10
338
20
1662
10
338
20
1758
10
142
20
1758
0
LWPOLYLINE
8
TOPSTITCH
90
4
70
1
10
153.5
20
1673.5
10
326.5
20
1673.5
10
326.5
20
1746.5
10
153.5
20
1746.5
0
LINE
8
GRAIN
10
240.0
20
1680
11
240.0
21
1740
0
TEXT
8
TEXT
10
155
20
1710.0
40
10
1
Upper Collar
0
LWPOLYLINE
8
CUT
90
4
70
1
10
350
20
1670
10
530
20
1670
10
530
20
1750
10
350
20
1750
0
LWPOLYLINE
8
SA
90
4
70
1
10
342
20
1662
10
538
20
1662
10
538
20
1758
10
342
20
1758
0
LWPOLYLINE
8
TOPSTITCH
90
4
70
1
10
353.5
20
1673.5
10
526.5
20
1673.5
10
526.5
20
1746.5
10
353.5
20
1746.5
0
LINE
8
GRAIN
10
440.0
20
1680
11
440.0
21
1740
0
TEXT
8
TEXT
10
355
20
1710.0
40
10
1
Lower Collar
0
LWPOLYLINE
8
CUT
90
4
70
1
10
850.0
20
0
10
915.0
20
0
10
915.0
20
730
10
850.0
20
730
0
LWPOLYLINE
8
SA
90
4
70
1
10
842.0
20
-8
10
923.0
20
-8
10
923.0
20
738
10
842.0
20
738
0
LWPOLYLINE
8
TOPSTITCH
90
4
70
1
10
853.5
20
3.5
10
911.5
20
3.5
10
911.5
20
726.5
10
853.5
20
726.5
0
LINE
8
GRAIN
10
882.5
20
10
11
882.5
21
720
0
TEXT
8
TEXT
10
855.0
20
365.0
40
10
1
Front Facing
0
LWPOLYLINE
8
CUT
90
4
70
1
10
850.0
20
880
10
1120.0
20
880
10
1120.0
20
960
10
850.0
20
960
0
LWPOLYLINE
8
SA
90
4
70
1
10
842.0
20
872
10
1128.0
20
872
10
1128.0
20
968
10
842.0
20
968
0
LWPOLYLINE
8
TOPSTITCH
90
4
70
1
10
853.5
20
883.5
10
1116.5
20
883.5
10
1116.5
20
956.5
10
853.5
20
956.5
0
LINE
8
GRAIN
10
985.0
20
890
11
985.0
21
950
0
TEXT
8
TEXT
10
855.0
20
920.0
40
10
1
Back Facing
0
LWPOLYLINE
8
CUT
90
4
70
1
10
900.0
20
0
10
1050.0
20
0
10
1050.0
20
60
10
900.0
20
60
0
LWPOLYLINE
8
SA
90
4
70
1
10
892.0
20
-8
10
1058.0
20
-8
10
1058.0
20
68
10
892.0
20
68
0
LWPOLYLINE
8
TOPSTITCH
90
4
70
1
10
903.5
20
3.5
10
1046.5
20
3.5
10
1046.5
20
56.5
10
903.5
20
56.5
0
LINE
8
GRAIN
10
975.0
20
10
11
975.0
21
50
0
TEXT
8
TEXT
10
905.0
20
30.0
40
10
1
Pocket Flap
0
LWPOLYLINE
8
CUT
90
4
70
1
10
900.0
20
80
10
1080.0
20
80
10
1080.0
20
280
10
900.0
20
280
0
LWPOLYLINE
8
SA
90
4
70
1
10
892.0
20
72
10
1088.0
20
72
10
1088.0
20
288
10
892.0
20
288
0
LWPOLYLINE
8
TOPSTITCH
90
4
70
1
10
903.5
20
83.5
10
1076.5
20
83.5
10
1076.5
20
276.5
10
903.5
20
276.5
0
LINE
8
GRAIN
10
990.0
20
90
11
990.0
21
270
0
TEXT
8
TEXT
10
905.0
20
180.0
40
10
1
Pocket Bag
0
LWPOLYLINE
8
CUT
90
4
70
1
10
950.0
20
0
10
1225.0
20
0
10
1225.0
20
730
10
950.0
20
730
0
LWPOLYLINE
8
SA
90
4
70
1
10
942.0
20
-8
10
1233.0
20
-8
10
1233.0
20
738
10
942.0
20
738
0
LWPOLYLINE
8
TOPSTITCH
90
4
70
1
10
953.5
20
3.5
10
1221.5
20
3.5
10
1221.5
20
726.5
10
953.5
20
726.5
0
LINE
8
GRAIN
10
1087.5
20
10
11
1087.5
21
720
0
TEXT
8
TEXT
10
955.0
20
365.0
40
10
1
Front Lining
0
LWPOLYLINE
8
CUT
90
4
70
1
10
1275.0
20
0
10
1545.0
20
0
10
1545.0
20
730
10
1275.0
20
730
0
LWPOLYLINE
8
SA
90
4
70
1
10
1267.0
20
-8
10
1553.0
20
-8
10
1553.0
20
738
10
1267.0
20
738
0
LWPOLYLINE
8
TOPSTITCH
90
4
70
1
10
1278.5
20
3.5
10
1541.5
20
3.5
10
1541.5
20
726.5
10
1278.5
20
726.5
0
LINE
8
GRAIN
10
1410.0
20
10
11
1410.0
21
720
0
TEXT
8
TEXT
10
1280.0
20
365.0
40
10
1
Back Lining
0
LWPOLYLINE
8
CUT
90
4
70
1
10
1595.0
20
0
10
1695.0
20
0
10
1695.0
20
730
10
1595.0
20
730
0
LWPOLYLINE
8
SA
90
4
70
1
10
1587.0
20
-8
10
1703.0
20
-8
10
1703.0
20
738
10
1587.0
20
738
0
LWPOLYLINE
8
TOPSTITCH
90
4
70
1
10
1598.5
20
3.5
10
1691.5
20
3.5
10
1691.5
20
726.5
10
1598.5
20
726.5
0
LINE
8
GRAIN
10
1645.0
20
10
11
1645.0
21
720
0
TEXT
8
TEXT
10
1600.0
20
365.0
40
10
1
Side Lining
0
LWPOLYLINE
8
CUT
90
4
70
1
10
950.0
20
880
10
1120.0
20
880
10
1120.0
20
1520
10
950.0
20
1520
0
LWPOLYLINE
8
SA
90
4
70
1
10
942.0
20
872
10
1128.0
20
872
10
1128.0
20
1528
10
942.0
20
1528
0
LWPOLYLINE
8
TOPSTITCH
90
4
70
1
10
953.5
20
883.5
10
1116.5
20
883.5
10
1116.5
20
1516.5
10
953.5
20
1516.5
0
LINE
8
GRAIN
10
1035.0
20
890
11
1035.0
21
1510
0
TEXT
8
TEXT
10
955.0
20
1200.0
40
10
1
Sleeve Lining
0
LWPOLYLINE
8
CUT
90
4
70
1
10
1745.0
20
0
10
1905.0
20
0
10
1905.0
20
180
10
1745.0
20
180
0
LWPOLYLINE
8
SA
90
4
70
1
10
1737.0
20
-8
10
1913.0
20
-8
10
1913.0
20
188
10
1737.0
20
188
0
LWPOLYLINE
8
TOPSTITCH
90
4
70
1
10
1748.5
20
3.5
10
1901.5
20
3.5
10
1901.5
20
176.5
10
1748.5
20
176.5
0
LINE
8
GRAIN
10
1825.0
20
10
11
1825.0
21
170
0
TEXT
8
TEXT
10
1750.0
20
90.0
40
10
1
Inside Pocket
0
LINE
8
NOTCH
10
285.0
20
730
11
290.0
21
730
0
LINE
8
NOTCH
10
607.5
20
730
11
612.5
21
730
0
LINE
8
NOTCH
10
422.5
20
438.0
11
427.5
21
438.0
0
LINE
8
NOTCH
10
472.5
20
438.0
11
477.5
21
438.0
0
LINE
8
NOTCH
10
422.5
20
365.0
11
427.5
21
365.0
0
LINE
8
NOTCH
10
472.5
20
365.0
11
477.5
21
365.0
0
LINE
8
NOTCH
10
147.5
20
365.0
11
152.5
21
365.0
0
LINE
8
NOTCH
10
607.5
20
240
11
612.5
21
240
0
LINE
8
NOTCH
10
607.5
20
0
11
612.5
21
0
0
CIRCLE
8
PUNCH
10
162
20
400
40
1
0
CIRCLE
8
PUNCH
10
162
20
500
40
1
0
LINE
8
FOLD
10
150
20
0
11
150
21
730
0
LINE
8
SKIVE
10
164
20
0
11
164
21
730
0
LINE
8
FOLD
10
900.0
20
0
11
1050.0
21
0
0
LINE
8
FOLD
10
900.0
20
60
11
1050.0
21
60
0
LINE
8
SKIVE
10
900.0
20
6
11
1050.0
21
6
0
LINE
8
SKIVE
10
900.0
20
54
11
1050.0
21
54
0
ENDSEC
0
EOF